<svg width="24" height="24" viewBox="0 0 24 24" fill="none" xmlns="http://www.w3.org/2000/svg">
<path d="M12 18C12.552 18 13 18.447 13 19V21C13 21.553 12.552 22 12 22C11.448 22 11 21.553 11 21V19C11 18.447 11.448 18 12 18ZM6.26953 16.1426C6.66753 15.7596 7.30059 15.772 7.68359 16.168C8.06759 16.565 8.05716 17.199 7.66016 17.582L6.2207 18.9717C6.02583 19.1595 5.77616 19.2519 5.52637 19.252C5.26437 19.252 5.00264 19.1493 4.80664 18.9463C4.42298 18.5493 4.43417 17.9151 4.83105 17.5322L6.26953 16.1426ZM16.3164 16.168C16.7004 15.772 17.3335 15.7596 17.7305 16.1426L19.1689 17.5322C19.5658 17.9151 19.577 18.5493 19.1934 18.9463C18.9974 19.1493 18.7356 19.252 18.4736 19.252C18.2238 19.2519 17.9742 19.1595 17.7793 18.9717L16.3398 17.582C15.9428 17.199 15.9324 16.565 16.3164 16.168ZM12 8C14.206 8 16 9.794 16 12C16 14.206 14.206 16 12 16C9.794 16 8 14.206 8 12C8 9.794 9.794 8 12 8ZM5 11C5.552 11 6 11.447 6 12C6 12.553 5.552 13 5 13H3C2.448 13 2 12.553 2 12C2 11.447 2.448 11 3 11H5ZM21 11C21.552 11 22 11.447 22 12C22 12.553 21.552 13 21 13H19C18.448 13 18 12.553 18 12C18 11.447 18.448 11 19 11H21ZM4.80664 5.05371C5.19064 4.65771 5.8237 4.64532 6.2207 5.02832L7.66016 6.41797C8.05706 6.80095 8.06749 7.43505 7.68359 7.83203C7.48763 8.03499 7.2268 8.13766 6.96484 8.1377C6.71484 8.1377 6.46453 8.04542 6.26953 7.85742L4.83105 6.46777C4.43414 6.08485 4.42288 5.45073 4.80664 5.05371ZM17.7793 5.02832C18.1783 4.64556 18.8104 4.65779 19.1934 5.05371C19.5773 5.44972 19.5659 6.0838 19.1689 6.46777L17.7305 7.85742C17.5355 8.04442 17.2852 8.1377 17.0352 8.1377C16.7733 8.13768 16.5124 8.03484 16.3164 7.83203C15.9325 7.43614 15.9432 6.802 16.3398 6.41797L17.7793 5.02832ZM12 2C12.552 2 13 2.447 13 3V5C13 5.553 12.552 6 12 6C11.448 6 11 5.553 11 5V3C11 2.447 11.448 2 12 2Z" fill="#231F20"/>
<mask id="mask0_1_173" style="mask-type:luminance" maskUnits="userSpaceOnUse" x="2" y="2" width="20" height="20">
<path d="M12 18C12.552 18 13 18.447 13 19V21C13 21.553 12.552 22 12 22C11.448 22 11 21.553 11 21V19C11 18.447 11.448 18 12 18ZM6.26953 16.1426C6.66753 15.7596 7.30059 15.772 7.68359 16.168C8.06759 16.565 8.05716 17.199 7.66016 17.582L6.2207 18.9717C6.02583 19.1595 5.77616 19.2519 5.52637 19.252C5.26437 19.252 5.00264 19.1493 4.80664 18.9463C4.42298 18.5493 4.43417 17.9151 4.83105 17.5322L6.26953 16.1426ZM16.3164 16.168C16.7004 15.772 17.3335 15.7596 17.7305 16.1426L19.1689 17.5322C19.5658 17.9151 19.577 18.5493 19.1934 18.9463C18.9974 19.1493 18.7356 19.252 18.4736 19.252C18.2238 19.2519 17.9742 19.1595 17.7793 18.9717L16.3398 17.582C15.9428 17.199 15.9324 16.565 16.3164 16.168ZM12 8C14.206 8 16 9.794 16 12C16 14.206 14.206 16 12 16C9.794 16 8 14.206 8 12C8 9.794 9.794 8 12 8ZM5 11C5.552 11 6 11.447 6 12C6 12.553 5.552 13 5 13H3C2.448 13 2 12.553 2 12C2 11.447 2.448 11 3 11H5ZM21 11C21.552 11 22 11.447 22 12C22 12.553 21.552 13 21 13H19C18.448 13 18 12.553 18 12C18 11.447 18.448 11 19 11H21ZM4.80664 5.05371C5.19064 4.65771 5.8237 4.64532 6.2207 5.02832L7.66016 6.41797C8.05706 6.80095 8.06749 7.43505 7.68359 7.83203C7.48763 8.03499 7.2268 8.13766 6.96484 8.1377C6.71484 8.1377 6.46453 8.04542 6.26953 7.85742L4.83105 6.46777C4.43414 6.08485 4.42288 5.45073 4.80664 5.05371ZM17.7793 5.02832C18.1783 4.64556 18.8104 4.65779 19.1934 5.05371C19.5773 5.44972 19.5659 6.0838 19.1689 6.46777L17.7305 7.85742C17.5355 8.04442 17.2852 8.1377 17.0352 8.1377C16.7733 8.13768 16.5124 8.03484 16.3164 7.83203C15.9325 7.43614 15.9432 6.802 16.3398 6.41797L17.7793 5.02832ZM12 2C12.552 2 13 2.447 13 3V5C13 5.553 12.552 6 12 6C11.448 6 11 5.553 11 5V3C11 2.447 11.448 2 12 2Z" fill="white"/>
</mask>
<g mask="url(#mask0_1_173)">
<rect width="24" height="24" fill="#0D1C2E"/>
</g>
</svg>
