<svg width="18" height="18" viewBox="0 0 18 18" fill="none" xmlns="http://www.w3.org/2000/svg">
<path d="M10.31 17.4C8.98774 17.6066 7.63535 17.498 6.36296 17.083C5.09057 16.6681 3.93413 15.9586 2.98779 15.0123C2.04144 14.0659 1.33193 12.9095 0.917011 11.6371C0.50209 10.3647 0.393485 9.0123 0.600035 7.69C0.0787677 6.69851 -0.111709 5.56629 0.0564446 4.45882C0.224598 3.35135 0.742567 2.32669 1.53464 1.53461C2.32672 0.742537 3.35138 0.224568 4.45885 0.0564141C5.56632 -0.11174 6.69855 0.0787371 7.69003 0.600005C9.01233 0.393454 10.3647 0.502059 11.6371 0.91698C12.9095 1.3319 14.0659 2.04141 15.0123 2.98776C15.9586 3.9341 16.6681 5.09054 17.0831 6.36293C17.498 7.63532 17.6066 8.98771 17.4 10.31C17.9213 11.3015 18.1118 12.4337 17.9436 13.5412C17.7755 14.6487 17.2575 15.6733 16.4654 16.4654C15.6734 17.2575 14.6487 17.7754 13.5412 17.9436C12.4337 18.1117 11.3015 17.9213 10.31 17.4ZM9.05204 14.156H9.01204C11.884 14.156 13.315 12.77 13.315 10.913C13.315 9.715 12.764 8.44201 10.589 7.955L8.60604 7.51501C7.85104 7.34301 6.98404 7.115 6.98404 6.4C6.98404 5.685 7.60404 5.18701 8.70804 5.18701C10.938 5.18701 10.735 6.715 11.839 6.715C12.415 6.715 12.932 6.373 12.932 5.785C12.932 4.415 10.735 3.38501 8.87604 3.38501C6.85504 3.38501 4.70304 4.24401 4.70304 6.52901C4.70304 7.62701 5.09703 8.799 7.26303 9.342L9.95203 10.013C10.768 10.215 10.97 10.672 10.97 11.085C10.97 11.772 10.286 12.443 9.05204 12.443C6.63504 12.443 6.97404 10.586 5.67804 10.586C5.09804 10.586 4.67504 10.984 4.67504 11.557C4.67504 12.671 6.02704 14.155 9.05204 14.155V14.156Z" fill="#FF5300"/>
</svg>
